<svg id="visual" viewBox="0 0 900 600" width="900" height="600" xmlns="http://www.w3.org/2000/svg" xmlns:xlink="http://www.w3.org/1999/xlink" version="1.1"><rect x="0" y="0" width="900" height="600" fill="#888277"></rect><path d="M0 352L21.5 364.7C43 377.3 86 402.7 128.8 403.8C171.7 405 214.3 382 257.2 371.5C300 361 343 363 385.8 370C428.7 377 471.3 389 514.2 387.8C557 386.7 600 372.3 642.8 372.7C685.7 373 728.3 388 771.2 400.8C814 413.7 857 424.3 878.5 429.7L900 435L900 601L878.5 601C857 601 814 601 771.2 601C728.3 601 685.7 601 642.8 601C600 601 557 601 514.2 601C471.3 601 428.7 601 385.8 601C343 601 300 601 257.2 601C214.3 601 171.7 601 128.8 601C86 601 43 601 21.5 601L0 601Z" fill="#cccccc"></path><path d="M0 413L21.5 416.3C43 419.7 86 426.3 128.8 432C171.7 437.7 214.3 442.3 257.2 439.5C300 436.7 343 426.3 385.8 425.2C428.7 424 471.3 432 514.2 437.2C557 442.3 600 444.7 642.8 440.8C685.7 437 728.3 427 771.2 423.3C814 419.7 857 422.3 878.5 423.7L900 425L900 601L878.5 601C857 601 814 601 771.2 601C728.3 601 685.7 601 642.8 601C600 601 557 601 514.2 601C471.3 601 428.7 601 385.8 601C343 601 300 601 257.2 601C214.3 601 171.7 601 128.8 601C86 601 43 601 21.5 601L0 601Z" fill="#c8c1b7"></path><path d="M0 447L21.5 452.3C43 457.7 86 468.3 128.8 474.5C171.7 480.7 214.3 482.3 257.2 487.3C300 492.3 343 500.7 385.8 501C428.7 501.3 471.3 493.7 514.2 485.7C557 477.7 600 469.3 642.8 467.5C685.7 465.7 728.3 470.3 771.2 470.2C814 470 857 465 878.5 462.5L900 460L900 601L878.5 601C857 601 814 601 771.2 601C728.3 601 685.7 601 642.8 601C600 601 557 601 514.2 601C471.3 601 428.7 601 385.8 601C343 601 300 601 257.2 601C214.3 601 171.7 601 128.8 601C86 601 43 601 21.5 601L0 601Z" fill="#c3b6a2"></path><path d="M0 519L21.5 517.3C43 515.7 86 512.3 128.8 511.3C171.7 510.3 214.3 511.7 257.2 513.7C300 515.7 343 518.3 385.8 521.2C428.7 524 471.3 527 514.2 527C557 527 600 524 642.8 523.3C685.7 522.7 728.3 524.3 771.2 517.8C814 511.3 857 496.7 878.5 489.3L900 482L900 601L878.5 601C857 601 814 601 771.2 601C728.3 601 685.7 601 642.8 601C600 601 557 601 514.2 601C471.3 601 428.7 601 385.8 601C343 601 300 601 257.2 601C214.3 601 171.7 601 128.8 601C86 601 43 601 21.5 601L0 601Z" fill="#bdab8e"></path><path d="M0 550L21.5 550.3C43 550.7 86 551.3 128.8 548C171.7 544.7 214.3 537.3 257.2 537.2C300 537 343 544 385.8 546C428.7 548 471.3 545 514.2 540.8C557 536.7 600 531.3 642.8 532C685.7 532.7 728.3 539.3 771.2 545.2C814 551 857 556 878.5 558.5L900 561L900 601L878.5 601C857 601 814 601 771.2 601C728.3 601 685.7 601 642.8 601C600 601 557 601 514.2 601C471.3 601 428.7 601 385.8 601C343 601 300 601 257.2 601C214.3 601 171.7 601 128.8 601C86 601 43 601 21.5 601L0 601Z" fill="#b7a17a"></path></svg>